<svg xmlns="http://www.w3.org/2000/svg" version="1.1" xmlns:xlink="http://www.w3.org/1999/xlink" xmlns:svgjs="http://svgjs.dev/svgjs" width="1440" height="560" preserveAspectRatio="none" viewBox="0 0 1440 560"><g mask="url(&quot;#SvgjsMask1048&quot;)" fill="none"><path d="M28.677,548.345C55.709,546.694,74.448,523.862,86.916,499.821C98.23,478.006,101.901,452.296,89.492,431.085C77.193,410.061,52.996,401.634,28.677,400.269C1.038,398.718,-29.826,400.526,-45.232,423.525C-61.989,448.539,-58.68,481.869,-43.34,507.776C-28.294,533.186,-0.799,550.145,28.677,548.345" fill="rgba(0, 193, 255, 0.4)" class="triangle-float1"></path><path d="M466.03,411.349C493.59,410.113,517.307,393.315,530.748,369.223C543.827,345.78,543.413,318.12,531.453,294.086C517.858,266.766,496.537,239.903,466.03,239.171C434.646,238.418,410.159,263.357,394.933,290.81C380.234,317.313,375.011,349.414,390.408,375.518C405.596,401.269,436.164,412.689,466.03,411.349" fill="rgba(0, 193, 255, 0.4)" class="triangle-float3"></path><path d="M558.451,289.378C606.279,289.566,652.642,270.04,678.264,229.654C705.818,186.221,715.097,129.378,687.49,85.979C661.305,44.816,607.234,40.755,558.451,41.307C510.984,41.844,459.698,48.693,434.376,88.845C407.697,131.15,413.946,186.184,440.262,228.716C465.234,269.077,510.989,289.191,558.451,289.378" fill="rgba(0, 193, 255, 0.4)" class="triangle-float1"></path><path d="M1084.816,199.992C1101.717,199.94,1118.134,193.006,1127.025,178.633C1136.386,163.5,1136.993,144.664,1128.817,128.86C1119.903,111.63,1104.191,96.082,1084.816,97.043C1066.427,97.955,1056.286,116.552,1047.776,132.879C1040.121,147.566,1034.153,164.393,1042.156,178.893C1050.372,193.779,1067.813,200.044,1084.816,199.992" fill="rgba(0, 193, 255, 0.4)" class="triangle-float3"></path><path d="M381.652,273.93C432.906,277.023,483.881,249.213,506.803,203.266C527.928,160.921,508.212,112.456,481.799,73.191C458.922,39.183,422.632,17.978,381.652,17.221C339.208,16.437,296.418,32.784,274.883,69.367C253.073,106.418,260.294,151.476,280.188,189.591C301.999,231.379,334.601,271.091,381.652,273.93" fill="rgba(0, 193, 255, 0.4)" class="triangle-float1"></path><path d="M1157.233,178.99C1186.164,180.511,1217.825,173.975,1232.597,149.053C1247.578,123.779,1240.058,91.544,1223.418,67.331C1208.881,46.178,1182.894,38.867,1157.233,39.391C1132.653,39.893,1108.424,48.983,1095.573,69.942C1082.153,91.828,1081.811,119.444,1094.447,141.792C1107.28,164.488,1131.196,177.622,1157.233,178.99" fill="rgba(0, 193, 255, 0.4)" class="triangle-float1"></path><path d="M1189.472,525.369C1216.732,525.303,1231.406,496.32,1244.299,472.302C1256.226,450.085,1266.701,425.127,1255.378,402.596C1243.06,378.087,1216.878,364.348,1189.472,363.211C1159.789,361.98,1126.764,370.192,1113.36,396.705C1100.679,421.788,1119.874,448.378,1134.184,472.568C1148.09,496.076,1162.159,525.435,1189.472,525.369" fill="rgba(0, 193, 255, 0.4)" class="triangle-float1"></path><path d="M686.917,344.482C750.061,344.981,810.473,308.657,837.197,251.445C860.961,200.57,831.86,145.787,801.915,98.287C774.644,55.028,738.035,14.502,686.917,13.06C633.672,11.558,588.151,46.182,560.101,91.464C530.22,139.702,515.273,198.372,540.698,249.1C568.645,304.859,624.548,343.989,686.917,344.482" fill="rgba(0, 193, 255, 0.4)" class="triangle-float2"></path><path d="M1012.765,474.698C1059.21,472.602,1106.021,458.473,1130.288,418.816C1155.546,377.54,1154.096,325.243,1129.842,283.369C1105.647,241.597,1061.015,217.418,1012.765,215.916C961.539,214.322,910.007,232.521,882.347,275.667C852.496,322.23,844.999,384.059,875.313,430.322C903.596,473.484,961.214,477.024,1012.765,474.698" fill="rgba(0, 193, 255, 0.4)" class="triangle-float2"></path><path d="M697.417,413.146C737.337,416.161,780.159,406.07,801.799,372.389C824.942,336.368,824.483,288.085,800.595,252.554C778.85,220.21,736.39,217.335,697.417,217.13C657.924,216.922,611.836,217.111,592.337,251.456C572.963,285.581,595.801,325.544,617.184,358.447C636.088,387.536,662.824,410.533,697.417,413.146" fill="rgba(0, 193, 255, 0.4)" class="triangle-float3"></path><path d="M-10.128,343.023C2.652,342.633,13.812,335.616,20.697,324.842C28.244,313.031,32.462,298.602,26.302,286.012C19.437,271.98,5.482,262.429,-10.128,261.836C-26.787,261.203,-43.914,268.303,-51.689,283.05C-59.083,297.076,-53.421,313.795,-44.39,326.827C-36.678,337.955,-23.661,343.436,-10.128,343.023" fill="rgba(0, 193, 255, 0.4)" class="triangle-float3"></path></g><defs><mask id="SvgjsMask1048"><rect width="1440" height="560" fill="#ffffff"></rect></mask><style>
                @keyframes float1 {
                    0%{transform: translate(0, 0)}
                    50%{transform: translate(-10px, 0)}
                    100%{transform: translate(0, 0)}
                }

                .triangle-float1 {
                    animation: float1 5s infinite;
                }

                @keyframes float2 {
                    0%{transform: translate(0, 0)}
                    50%{transform: translate(-5px, -5px)}
                    100%{transform: translate(0, 0)}
                }

                .triangle-float2 {
                    animation: float2 4s infinite;
                }

                @keyframes float3 {
                    0%{transform: translate(0, 0)}
                    50%{transform: translate(0, -10px)}
                    100%{transform: translate(0, 0)}
                }

                .triangle-float3 {
                    animation: float3 6s infinite;
                }
            </style></defs></svg>